:SAMPLES-PER-SECOND 30
:FULLY-SPECIFIED
:DEGREES
366
root  -4.5488 21.018 -14.0179 15.9214 -5.43149 4.73633
RightUpLeg  -29.9613 -15.8113 -42.0189
RightLeg  73.4462 -1.4515 -4.14547
RightFoot  -27.436 1.22222 5.38161
RightToes  -51.3397 -0.314797 -0.369827
Spine  23.743 4.35849 0.656638
Spine1  39.1695 15.336 -1.33635
HEad  8.44958 -13.5028 12.5589
LeftShoulder1  0 -2.42657e-020 -4.95415e-022
LeftArm  -18.808 -31.9816 -103.099
LeftForeArm  36.0246 -54.0122 -14.0865
LeftHand  -0.410592 -8.6078 5.08575
RightShoulder  0 2.42657e-020 1.07489e-018
RightArm  -70.5238 45.4549 18.9904
RightForeArm  43.2037 40.4676 8.64403
RightHand  -0.11439 23.5527 -0.178718
LeftUpLeg  -90.8516 4.58781 4.40657
LeftLeg  81.041 -3.21095 -14.0526
LeftFoot  0.528149 0.00323976 -0.702926
LeftToes  -48.0344 8.63562e-007 1.17448e-007
367
root  -4.35321 21.0918 -14.09 15.2675 -2.2713 4.33377
RightUpLeg  -29.9603 -21.6326 -39.9332
RightLeg  77.8459 -0.971607 -3.72818
RightFoot  -27.9114 1.27893 5.52091
RightToes  -49.3567 -0.297203 -0.362609
Spine  23.9861 3.59407 0.573348
Spine1  39.4465 13.2796 -0.531765
HEad  8.10695 -14.8747 16.2655
LeftShoulder1  0 -2.42657e-020 -4.95415e-022
LeftArm  -15.8241 -33.1359 -103.875
LeftForeArm  33.7198 -52.5447 -13.3368
LeftHand  -0.316268 -8.00652 4.15044
RightShoulder  0 2.42657e-020 1.07489e-018
RightArm  -61.8322 44.6582 20.294
RightForeArm  48.341 44.6364 10.0182
RightHand  -1.48462 21.7129 -7.36202
LeftUpLeg  -90.6447 3.46116 3.23575
LeftLeg  80.2514 -3.61218 -14.8078
LeftFoot  0.931713 0.00516887 -0.635711
LeftToes  -49.963 8.63562e-007 1.17448e-007
368
root  -4.35244 21.0498 -14.1368 14.4 0.513321 3.49448
RightUpLeg  -30.0722 -25.701 -38.0217
RightLeg  81.3211 -0.741004 -3.80421
RightFoot  -28.1071 1.39248 5.9364
RightToes  -47.8702 -0.284205 -0.35513
Spine  24.3482 3.03461 0.706155
Spine1  39.9072 12.568 -0.697654
HEad  9.61717 -15.0208 19.8292
LeftShoulder1  0 -2.42657e-020 -4.95415e-022
LeftArm  -13.383 -34.4265 -104.413
LeftForeArm  31.0987 -51.2438 -12.715
LeftHand  -0.259501 -7.53599 3.57205
RightShoulder  0 2.42657e-020 1.07489e-018
RightArm  -52.9869 44.9764 25.545
RightForeArm  48.7304 42.8142 9.38918
RightHand  -3.32564 23.7905 -15.3273
LeftUpLeg  -90.5603 3.01105 2.35675
LeftLeg  80.2173 -4.12969 -16.7679
LeftFoot  1.22397 0.00672889 -0.62996
LeftToes  -48.7014 8.63562e-007 1.17448e-007
369
root  -4.43743 20.9812 -14.239 13.7973 4.0444 2.68562
RightUpLeg  -27.9445 -27.8203 -37.4485
RightLeg  81.6551 -0.688376 -3.67
RightFoot  -28.2183 1.45931 6.17888
RightToes  -47.8618 -0.284132 -0.355092
Spine  25.0998 2.64746 1.62415
Spine1  41.1071 12.3771 0.154252
HEad  9.91143 -16.7281 23.8271
LeftShoulder1  0 -2.42657e-020 -4.95415e-022
LeftArm  -8.75346 -36.7379 -107.191
LeftForeArm  29.1102 -48.7722 -11.6277
LeftHand  -0.25192 -7.55251 3.44856
RightShoulder  0 2.42657e-020 1.07489e-018
RightArm  -50.1515 46.1486 29.2375
RightForeArm  52.0661 34.8216 7.01457
RightHand  -3.88636 25.656 -16.583
LeftUpLeg  -90.9768 2.47924 1.1687
LeftLeg  79.9731 -4.21571 -16.7976
LeftFoot  1.75821 0.0113906 -0.742325
LeftToes  -47.1171 8.63562e-007 1.17448e-007
370
root  -4.52175 20.9931 -14.5109 13.7469 8.55856 2.32835
RightUpLeg  -22.9594 -29.0897 -37.5454
RightLeg  78.4677 -1.10971 -4.39676
RightFoot  -28.5873 1.61365 6.70525
RightToes  -54.3279 -0.341819 -0.380982
Spine  26.1028 1.89478 3.26237
Spine1  42.6321 11.1788 2.44577
HEad  8.49025 -19.6024 27.8656
LeftShoulder1  0 -2.42657e-020 -4.95415e-022
LeftArm  -2.29523 -39.5472 -111.515
LeftForeArm  26.0619 -45.4961 -10.347
LeftHand  -0.155479 -6.90334 2.20957
RightShoulder  0 2.42657e-020 1.07489e-018
RightArm  -57.4041 49.7065 29.298
RightForeArm  55.7729 21.957 4.03469
RightHand  -3.02937 25.9473 -12.728
LeftUpLeg  -91.854 2.11304 -1.58813
LeftLeg  79.3463 -3.54076 -13.612
LeftFoot  0.144783 0.000300799 -0.238088
LeftToes  -38.7683 8.63562e-007 1.17448e-007
371
root  -4.44453 21.1455 -14.932 15.2322 12.5782 2.53397
RightUpLeg  -21.1176 -31.9001 -37.5926
RightLeg  77.0078 -1.30279 -4.62533
RightFoot  -27.5645 1.60318 6.90681
RightToes  -57.6729 -0.372709 -0.391779
Spine  25.9134 0.754213 4.68051
Spine1  41.9264 8.47479 5.00038
HEad  5.15196 -22.1906 33.3152
LeftShoulder1  0 -2.42657e-020 -4.95415e-022
LeftArm  4.33079 -41.8045 -114.473
LeftForeArm  25.1398 -41.7003 -9.04352
LeftHand  -0.038015 -6.63333 0.286323
RightShoulder  0 2.42657e-020 1.07489e-018
RightArm  -77.8423 53.342 28.2169
RightForeArm  73.4986 7.38763 1.23489
RightHand  -1.83516 24.3287 -8.13074
LeftUpLeg  -93.1121 0.767989 -2.72952
LeftLeg  78.3735 -1.48247 -5.42445
LeftFoot  -3.20427 -0.00284517 -0.101732
LeftToes  -30.0303 8.63562e-007 1.17448e-007
372
root  -3.9795 21.7123 -15.3363 18.909 9.19189 3.62041
RightUpLeg  -27.997 -30.5498 -36.0126
RightLeg  75.6697 -1.74747 -5.61094
RightFoot  -24.4651 1.40231 6.83937
RightToes  -57.339 -0.369598 -0.390782
Spine  24.5944 1.10681 3.69625
Spine1  39.0463 7.69738 5.37715
HEad  0.481513 -23.2246 37.0669
LeftShoulder1  0 -2.42657e-020 -4.95415e-022
LeftArm  7.33553 -42.6976 -114.76
LeftForeArm  28.0618 -39.3552 -8.31512
LeftHand  0.0642791 -7.28807 -1.38055
RightShoulder  0 2.42657e-020 1.07489e-018
RightArm  -77.3828 52.2599 31.374
RightForeArm  71.8853 -0.201807 -0.0971398
RightHand  -0.868766 18.4732 -4.97022
LeftUpLeg  -94.1788 2.67034 0.00288567
LeftLeg  80.7731 -3.1778 -13.6263
LeftFoot  1.15358 0.00983056 -0.976479
LeftToes  -29.8494 8.63562e-007 1.17448e-007
373
root  -3.20457 22.2144 -15.6088 21.5565 0.618866 3.23384
RightUpLeg  -36.9475 -24.2366 -34.5117
RightLeg  73.0061 -2.19292 -5.99473
RightFoot  -21.1996 1.089 6.19206
RightToes  -56.6142 -0.362865 -0.388557
Spine  23.758 2.79348 1.11741
Spine1  37.4203 9.29325 3.39259
HEad  -1.30708 -21.5621 39.0173
LeftShoulder1  0 -2.42657e-020 -4.95415e-022
LeftArm  6.58936 -43.2374 -114.103
LeftForeArm  31.7581 -39.4128 -8.33052
LeftHand  -0.0352702 -8.04726 0.131576
RightShoulder  0 2.42657e-020 1.07489e-018
RightArm  -83.2978 52.4186 42.3556
RightForeArm  76.3664 -0.208373 -0.110534
RightHand  -1.09504 18.2939 -6.42529
LeftUpLeg  -90.1798 5.87886 7.26505
LeftLeg  85.0473 -4.25936 -26.104
LeftFoot  -4.92436 0.0295995 0.688349
LeftToes  -34.8287 8.63562e-007 1.17448e-007
374
root  -2.1882 22.646 -15.8731 23.6733 -5.7818 0.586304
RightUpLeg  -42.465 -19.2185 -32.6988
RightLeg  68.248 -2.4893 -5.36495
RightFoot  -16.9936 0.709667 5.12541
RightToes  -56.7498 -0.364122 -0.38898
Spine  22.7897 3.02084 1.10594
Spine1  35.9142 8.68363 3.54159
HEad  -0.723041 -20.9143 37.0173
LeftShoulder1  0 -2.42657e-020 -4.95415e-022
LeftArm  2.19669 -43.1505 -112.877
LeftForeArm  32.2271 -40.6388 -8.7048
LeftHand  -0.0203891 -7.34777 -0.0524572
RightShoulder  0 2.42657e-020 1.07489e-018
RightArm  -68.4185 47.9218 50.9731
RightForeArm  62.9104 3.07664 0.49946
RightHand  -0.874378 19.2793 -4.77617
LeftUpLeg  -89.7059 9.43577 8.22277
LeftLeg  84.3407 -3.88383 -22.4193
LeftFoot  -6.22948 0.0280369 0.515219
LeftToes  -41.1844 8.63562e-007 1.17448e-007
375
root  -1.03584 23.1723 -16.0973 25.8045 -10.9055 -1.16612
RightUpLeg  -46.1116 -15.965 -32.2276
RightLeg  62.7726 -2.79009 -4.75044
RightFoot  -13.644 0.479547 4.38467
RightToes  -54.3312 -0.341849 -0.383424
Spine  22.3986 2.51447 1.17808
Spine1  35.3607 7.03268 3.1444
HEad  -0.302398 -19.0985 33.4076
LeftShoulder1  0 -2.42657e-020 -4.95415e-022
LeftArm  -2.11282 -44.7076 -109.981
LeftForeArm  32.5076 -42.7031 -9.36881
LeftHand  0.0277758 -6.65126 -0.848832
RightShoulder  0 2.42657e-020 1.07489e-018
RightArm  -62.8464 46.4224 58.0705
RightForeArm  56.5627 6.77979 1.16716
RightHand  -0.405212 23.1948 -1.60473
LeftUpLeg  -90.7999 12.4981 6.49706
LeftLeg  84.173 -3.49138 -20.0184
LeftFoot  -5.71044 -0.000410046 -0.00823066
LeftToes  -37.6532 8.63562e-007 1.17448e-007
